<svg id="Layer_1" data-name="Layer 1" xmlns="http://www.w3.org/2000/svg" xmlns:xlink="http://www.w3.org/1999/xlink" viewBox="0 0 566.55 535.91"><defs><style>.cls-1{fill:url(#Summer);}.cls-2{fill:none;}.cls-2,.cls-3{stroke:#000;stroke-miterlimit:10;stroke-width:8px;}.cls-3{fill:url(#Orchid);}</style><radialGradient id="Summer" cx="601.24" cy="489.01" r="263.86" gradientUnits="userSpaceOnUse"><stop offset="0" stop-color="#fff"/><stop offset="0.09" stop-color="#ffedd8"/><stop offset="0.21" stop-color="#ffd5a7"/><stop offset="0.33" stop-color="#ffc17d"/><stop offset="0.46" stop-color="#ffb05b"/><stop offset="0.59" stop-color="#ffa340"/><stop offset="0.72" stop-color="#ff9a2d"/><stop offset="0.86" stop-color="#ff9522"/><stop offset="1" stop-color="#ff931e"/></radialGradient><linearGradient id="Orchid" x1="228.25" y1="333.34" x2="338.88" y2="333.34" gradientUnits="userSpaceOnUse"><stop offset="0" stop-color="#ff7bac"/><stop offset="0.22" stop-color="#ff7bac" stop-opacity="0.76"/><stop offset="0.6" stop-color="#ff7bac" stop-opacity="0.36"/><stop offset="0.87" stop-color="#ff7bac" stop-opacity="0.1"/><stop offset="1" stop-color="#ff7bac" stop-opacity="0"/></linearGradient></defs><title>cat</title><path class="cls-1" d="M355.5,434.5c5.54-56.79-12.28-93.67-25.68-149.13,42.61,29.55,60.73,86.7,105.39,113.06,15.72,9.27,35.85,16.19,41.42,33.58,14.87-19.54,30.43-39.69,52.14-51.17,22.77-12,49.56-13.12,75.31-13.92,22.63-.71,45.65-1.37,67.51,4.52s42.8,19.39,52.13,40c49.48-44.39,76.95-112.22,72.3-178.52A1072.63,1072.63,0,0,1,866.36,393c3.53,10.21,6.94,20.8,6.21,31.58-1.13,16.77-12.11,31.3-24.49,42.67S821.44,488,810.41,500.7c-3.59,4.12-6.93,8.87-7.36,14.31-.42,5.28,2,10.34,4.08,15.19,10.58,24,16.72,50.59,13.13,76.58-4.69,34-25.87,64.18-53.09,85s-60.12,33.05-93.43,41.08a440.35,440.35,0,0,1-132.13,11.25c-37-2.47-74.37-9.91-106.54-28.33-38.46-22-67.2-58.69-84.9-99.31-11.94-27.42-19.26-57.37-17-87.19,1.39-18.24,6.31-36,11.2-53.61l11.4-41Z" transform="translate(-317.93 -221.16)"/><path d="M367.5,434.5c2.43-26.07-.1-52-6-77.48-5.83-25.17-14-49.74-20.12-74.84l-17.63,13.55c21.13,14.85,36.07,37.72,51.46,58.68,16.57,22.59,34.36,43.89,59.38,57.44,6.61,3.58,13.39,6.88,19.64,11.07a36.58,36.58,0,0,1,6.85,5.82,20.25,20.25,0,0,1,4,6.46c3.61,10.44,15.68,11.08,21.93,2.86,10.26-13.48,20.86-27.15,34.1-37.88,13.44-10.88,29.63-16.31,46.56-18.82,18.17-2.69,37-2.73,55.35-2.88,18.7-.15,37.66.92,55.28,7.74,15,5.82,28.13,16.45,35.08,31.3,3.45,7.37,13.6,7.16,18.84,2.42,40-36.17,66.61-87,73.95-140.44A229.44,229.44,0,0,0,808,232.94L785.66,239a1052.39,1052.39,0,0,1,51.06,108.7c7.51,18.75,15.06,37.74,20.89,57.09,2.41,8,4.14,16.35,2.17,24.31a49.66,49.66,0,0,1-10.26,19.35c-11.56,14.05-27.29,23.81-40.38,36.28-6.93,6.59-14.52,14.42-17.07,23.92-2.93,10.87,1.58,20,5.64,29.81,7.4,17.88,12.1,37.09,11.52,56.52a100.9,100.9,0,0,1-13.41,46.52c-16.94,30-45.51,50.79-76.74,64.23-35.32,15.2-74.73,22.85-112.9,25.93-38.93,3.14-79.3,2.07-117.31-7.51-34.09-8.59-64.22-25.43-88.23-51.22-23.4-25.15-40.54-56.82-49.69-89.87-5.21-18.78-7.4-38.1-5.43-57.54,2-19.66,8.29-38.88,13.55-57.84l8.29-29.83c1.37-4.94-.86-11.08-5.51-13.55l-.29-.15c-5.73-3-13.06-1.45-16.42,4.3-3.18,5.43-1.44,13.37,4.3,16.42l.29.16-5.51-13.56c-11.34,40.82-27.25,83.06-22.47,126.07,4.34,39.05,20.14,77.26,43,109.11,22.11,30.78,50.93,55.38,86,70.08,37.85,15.87,80,20.42,120.7,20.35,42.85-.07,86.34-6,127.34-18.61,36.72-11.27,72.76-29.27,98.58-58.38S837.14,613.92,832.16,575a165.73,165.73,0,0,0-6.86-30.83c-1.53-4.66-3.27-9.24-5.15-13.76-1.72-4.16-4.78-9-5.14-13.62-.22-2.79,2.06-5.41,3.88-7.58a108.45,108.45,0,0,1,11.06-11c7.37-6.56,15.26-12.5,22.72-19,13.86-12,27.14-27.5,30.76-46,4.13-21.17-4.67-41.59-11.8-61.12a1096.7,1096.7,0,0,0-50.88-117.66q-7-13.87-14.37-27.53c-5.5-10.19-23.15-5.9-22.36,6.06a211.87,211.87,0,0,1-68.79,170l18.85,2.43c-17.62-37.64-61.53-49.79-99.73-50.83a451.7,451.7,0,0,0-63.06,2.32c-20.64,2.36-41,7.46-58.29,19.54-18.9,13.23-32.9,31.35-46.73,49.52l21.93,2.87c-5.15-14.9-16.85-24.26-30.24-31.67-12.08-6.69-23.6-12.55-33.42-21.56-21.16-19.42-35.37-44-53.3-66.46-10.32-12.94-21.8-24.59-35.37-34.13-9-6.34-19.93,4.1-17.63,13.56,6,24.59,13.95,48.66,19.77,73.29,5.66,24,7.79,48,5.49,72.65-.6,6.46,5.95,12,12,12C362.49,446.5,366.9,441,367.5,434.5Z" transform="translate(-317.93 -221.16)"/><ellipse class="cls-2" cx="165.57" cy="281.84" rx="29" ry="19.5"/><ellipse class="cls-2" cx="400.57" cy="281.84" rx="29" ry="19.5"/><polygon class="cls-3" points="338.88 362.88 285.64 396.02 230.32 366.47 228.25 303.8 281.49 270.66 336.81 300.2 338.88 362.88"/></svg>